<?xml version="1.0" encoding="UTF-8"?>
<svg width="1440px" height="1024px" viewBox="0 0 1440 1024" version="1.1" xmlns="http://www.w3.org/2000/svg" xmlns:xlink="http://www.w3.org/1999/xlink">
    <!-- Generator: Sketch 45.1 (43504) - http://www.bohemiancoding.com/sketch -->
    <title>Landing Page</title>
    <desc>Created with Sketch.</desc>
    <defs></defs>
    <g id="Page-1" stroke="none" stroke-width="1" fill="none" fill-rule="evenodd">
        <g id="Landing-Page">
            <path d="M212.871923,478.626117 C315.138582,592.775275 530.082309,766.903036 685.318462,573.588659 C863.922221,351.174217 270.365484,-76.794979 213.077486,111.920305 C179.47639,222.606874 172.169643,313.774049 171.872251,370.242043 C171.661634,410.205874 186.20436,448.860493 212.871923,478.626117 Z" id="Fill-1" fill="#FFE800"></path>
            <path d="M939.051676,593.338796 C1144.75032,559.10192 1326.7835,603.408022 1335.88541,637.644897 C1344.98732,671.881773 1330.4246,673.895115 1363.1903,752.438092 C1395.95684,830.980231 1011.86528,839.036115 959.075208,863.202927 C906.285973,887.369738 702.407876,1155.39068 706.048138,879.399351 C709.689237,603.408022 939.051676,593.338796 939.051676,593.338796" id="Fill-3" fill="#439B2C"></path>
            <path d="M-72.1158391,600.135867 C-76.8570186,601.333598 -80.9758074,604.248462 -82.6911555,608.828075 C-164.423231,827.051338 265.8397,1036.20949 293.416673,988.010795 C322.89367,936.491481 480.106389,601.857439 418.11591,566.974958 C354.608964,531.239239 -14.0505955,585.463881 -72.1158391,600.135867" id="Fill-5" fill="#CF0A1D"></path>
            <g id="Group" transform="translate(774.000000, -38.861736)" stroke="#009BD0" stroke-width="12">
                <path d="M717.477331,156.269547 C717.477331,242.17558 648.538085,311.816578 563.496608,311.816578 C478.455131,311.816578 409.515885,242.17558 409.515885,156.269547 C409.515885,70.3635142 478.455131,0.722515959 563.496608,0.722515959 C648.538085,0.722515959 717.477331,70.3635142 717.477331,156.269547 Z" id="Stroke-9"></path>
                <path d="M308.148904,424.216332 C308.148904,510.122364 239.209659,579.763363 154.168181,579.763363 C69.1267043,579.763363 0.187458554,510.122364 0.187458554,424.216332 C0.187458554,338.310299 69.1267043,268.669301 154.168181,268.669301 C239.209659,268.669301 308.148904,338.310299 308.148904,424.216332 Z" id="Stroke-7"></path>
                <path d="M0.187372048,424.216332 L409.515712,156.269288" id="Stroke-11"></path>
                <path d="M154.168181,268.669301 L563.496521,0.722256714" id="Stroke-13"></path>
                <path d="M15.4913258,491.895795 L426.003068,226.354546" id="Stroke-15"></path>
                <path d="M457.060374,268.669301 L51.128261,539.797281" id="Stroke-17"></path>
                <path d="M107.662024,571.561109 L511.256744,302.689424" id="Stroke-19"></path>
                <path d="M47.731948,311.816578 L457.060288,43.8695341" id="Stroke-21"></path>
                <path d="M633.103161,17.4916957 L220.74711,279.837318" id="Stroke-23"></path>
                <path d="M690.939964,68.9522706 L281.384979,335.813078" id="Stroke-25"></path>
                <path d="M717.477331,156.269547 L308.148991,424.216591" id="Stroke-27"></path>
                <path d="M154.168181,579.763363 L563.496521,311.816319" id="Stroke-29"></path>
                <path d="M679.916588,258.077326 L246.818988,548.4603" id="Stroke-31"></path>
            </g>
        </g>
    </g>
</svg>