<?xml version="1.0" encoding="UTF-8"?>
<svg width="1440px" height="1024px" viewBox="0 0 1440 1024" version="1.1" xmlns="http://www.w3.org/2000/svg" xmlns:xlink="http://www.w3.org/1999/xlink">
    <!-- Generator: Sketch 45.1 (43504) - http://www.bohemiancoding.com/sketch -->
    <title>Projects</title>
    <desc>Created with Sketch.</desc>
    <defs>
        <path d="M20.8842712,45.1358666 C16.1430667,46.3335979 12.0242562,49.2484621 10.308899,53.828075 C-71.4236081,272.051338 358.841595,481.20949 386.418714,433.010795 C415.895866,381.491481 573.109416,46.8574389 511.11861,11.9749584 C447.611329,-23.7607613 78.9498215,30.4638805 20.8842712,45.1358666" id="path-1"></path>
    </defs>
    <g id="Page-1" stroke="none" stroke-width="1" fill="none" fill-rule="evenodd">
        <g id="Projects">
            <path d="M171.872574,370.241945 C171.661955,410.205552 186.204745,448.859954 212.872424,478.625411 C315.139527,592.773928 530.084187,766.900712 685.321014,573.58742 C863.925548,351.174226 270.366234,-76.7925673 213.077988,111.921658 C179.476746,222.607605 172.169967,313.774268 171.872574,370.241945" id="Fill-1" stroke="#FFE800" stroke-width="12"></path>
            <path d="M939.052683,593.338796 C1144.75222,559.10192 1326.78618,603.408022 1335.88813,637.644897 C1344.99008,671.881773 1330.4273,673.895115 1363.19314,752.438092 C1395.95982,830.980231 1011.8666,839.036115 959.076302,863.202927 C906.286838,887.369738 702.407861,1155.39068 706.048138,879.399351 C709.689253,603.408022 939.052683,593.338796 939.052683,593.338796" id="Fill-3" stroke="#439B2C" stroke-width="12"></path>
            <g id="Cubes" transform="translate(-93.000000, 555.000000)">
                <mask id="mask-2" fill="white">
                    <use xlink:href="#path-1"></use>
                </mask>
                <use id="Mask" fill="#CF0A1D" xlink:href="#path-1"></use>
                <g mask="url(#mask-2)" id="Page-1">
                    <g transform="translate(-85.000000, -344.000000)">
                        <g>
                            <polygon id="Fill-1" fill="#CF0A1D" points="94.6692539 907.924346 591.422804 907.924346 591.422804 58.815711 94.6692539 58.815711"></polygon>
                            <polygon id="Fill-68" fill="#F5A4AD" points="282.95002 771.667962 212.622042 812.272651 142.294064 771.667962 142.294064 690.457797 212.622042 649.853108 282.95002 690.457797"></polygon>
                            <polygon id="Stroke-69" stroke="#CF0A1D" stroke-width="10.775" points="282.95002 771.667962 212.622042 812.272651 142.294064 771.667962 142.294064 690.457797 212.622042 649.853108 282.95002 690.457797"></polygon>
                            <g id="Group-72" transform="translate(212.271715, 690.058008)">
                                <path d="M0.350326949,40.5424214 L70.6783047,0.400024513" id="Fill-70" fill="#F5A4AD"></path>
                                <path d="M0.350326949,40.5424214 L70.6783047,0.400024513" id="Stroke-71" stroke="#CF0A1D" stroke-width="10.775"></path>
                            </g>
                            <g id="Group-75" transform="translate(141.514477, 690.058008)">
                                <path d="M71.1075653,40.5424214 L0.779587528,0.400024513" id="Fill-73" fill="#F5A4AD"></path>
                                <path d="M71.1075653,40.5424214 L0.779587528,0.400024513" id="Stroke-74" stroke="#CF0A1D" stroke-width="10.775"></path>
                            </g>
                            <path d="M212.622278,812.272809 L212.622278,730.600351 L212.622278,812.272809 Z" id="Fill-76" fill="#F5A4AD"></path>
                            <path d="M212.622042,812.272966 L212.622042,730.600508" id="Stroke-77" stroke="#CF0A1D" stroke-width="10.775"></path>
                            <polygon id="Fill-78" fill="#F5A4AD" points="423.948283 771.667962 353.620305 812.272651 283.292327 771.667962 283.292327 690.457797 353.620305 649.853108 423.948283 690.457797"></polygon>
                            <polygon id="Stroke-79" stroke="#CF0A1D" stroke-width="10.775" points="423.948283 771.667962 353.620305 812.272651 283.292327 771.667962 283.292327 690.457797 353.620305 649.853108 423.948283 690.457797"></polygon>
                            <g id="Group-82" transform="translate(353.000000, 690.058008)">
                                <path d="M0.620226503,40.5424214 L70.9482042,0.400024513" id="Fill-80" fill="#F5A4AD"></path>
                                <path d="M0.620226503,40.5424214 L70.9482042,0.400024513" id="Stroke-81" stroke="#CF0A1D" stroke-width="10.775"></path>
                            </g>
                            <g id="Group-85" transform="translate(283.028953, 690.058008)">
                                <path d="M70.5912733,40.5424214 L0.263295546,0.400024513" id="Fill-83" fill="#F5A4AD"></path>
                                <path d="M70.5912733,40.5424214 L0.263295546,0.400024513" id="Stroke-84" stroke="#CF0A1D" stroke-width="10.775"></path>
                            </g>
                            <path d="M353.620227,812.272809 L353.620227,730.600351 L353.620227,812.272809 Z" id="Fill-86" fill="#F5A4AD"></path>
                            <path d="M353.620227,812.272966 L353.620227,730.600508" id="Stroke-87" stroke="#CF0A1D" stroke-width="10.775"></path>
                            <polygon id="Fill-88" fill="#F5A4AD" points="564.285673 771.667962 493.957696 812.272651 423.629718 771.667962 423.629718 690.457797 493.957696 649.853108 564.285673 690.457797"></polygon>
                            <polygon id="Stroke-89" stroke="#CF0A1D" stroke-width="10.775" points="564.285673 771.667962 493.957696 812.272651 423.629718 771.667962 423.629718 690.457797 493.957696 649.853108 564.285673 690.457797"></polygon>
                            <g id="Group-92" transform="translate(493.728285, 690.058008)">
                                <path d="M0.22941069,40.5424214 L70.5573884,0.400024513" id="Fill-90" fill="#F5A4AD"></path>
                                <path d="M0.22941069,40.5424214 L70.5573884,0.400024513" id="Stroke-91" stroke="#CF0A1D" stroke-width="10.775"></path>
                            </g>
                            <g id="Group-95" transform="translate(422.971047, 690.058008)">
                                <path d="M70.986649,40.5424214 L0.658671269,0.400024513" id="Fill-93" fill="#F5A4AD"></path>
                                <path d="M70.986649,40.5424214 L0.658671269,0.400024513" id="Stroke-94" stroke="#CF0A1D" stroke-width="10.775"></path>
                            </g>
                            <path d="M493.95801,812.272809 L493.95801,730.600351 L493.95801,812.272809 Z" id="Fill-96" fill="#F5A4AD"></path>
                            <path d="M493.957696,812.272966 L493.957696,730.600508" id="Stroke-97" stroke="#CF0A1D" stroke-width="10.775"></path>
                            <polygon id="Fill-98" fill="#F5A4AD" points="704.623221 771.667962 634.295244 812.272651 563.967266 771.667962 563.967266 690.457797 634.295244 649.853108 704.623221 690.457797"></polygon>
                            <polygon id="Stroke-99" stroke="#CF0A1D" stroke-width="10.775" points="704.623221 771.667962 634.295244 812.272651 563.967266 771.667962 563.967266 690.457797 634.295244 649.853108 704.623221 690.457797"></polygon>
                            <path d="M634.295165,730.60043 L704.623143,690.458033" id="Fill-101" fill="#F5A4AD"></path>
                            <path d="M634.295165,730.60043 L704.623143,690.458033" id="Stroke-102" stroke="#CF0A1D" stroke-width="10.775"></path>
                            <g id="Group-106" transform="translate(563.699332, 690.058008)">
                                <path d="M70.5958332,40.5424214 L0.267855457,0.400024513" id="Fill-104" fill="#F5A4AD"></path>
                                <path d="M70.5958332,40.5424214 L0.267855457,0.400024513" id="Stroke-105" stroke="#CF0A1D" stroke-width="10.775"></path>
                            </g>
                            <path d="M634.295086,812.272809 L634.295086,730.600351 L634.295086,812.272809 Z" id="Fill-107" fill="#F5A4AD"></path>
                            <path d="M634.295165,812.272966 L634.295165,730.600508" id="Stroke-108" stroke="#CF0A1D" stroke-width="10.775"></path>
                            <path d="M704.304421,771.667726 L704.304421,690.458347 L704.304421,771.667726 Z" id="Fill-109" fill="#F5A4AD"></path>
                            <path d="M704.304578,771.667962 L704.304578,690.457797" id="Stroke-110" stroke="#CF0A1D" stroke-width="10.775"></path>
                            <polygon id="Fill-123" fill="#F5A4AD" points="282.619662 609.248182 212.291684 649.852872 141.963706 609.248182 141.963706 528.038017 212.291684 487.433328 282.619662 528.038017"></polygon>
                            <polygon id="Stroke-124" stroke="#CF0A1D" stroke-width="10.775" points="282.619662 609.248182 212.291684 649.852872 141.963706 609.248182 141.963706 528.038017 212.291684 487.433328 282.619662 528.038017"></polygon>
                            <g id="Group-127" transform="translate(212.271715, 527.312187)">
                                <path d="M0.019969265,40.8683848 L70.347947,0.725987883" id="Fill-125" fill="#F5A4AD"></path>
                                <path d="M0.019969265,40.8683848 L70.347947,0.725987883" id="Stroke-126" stroke="#CF0A1D" stroke-width="10.775"></path>
                            </g>
                            <g id="Group-130" transform="translate(141.514477, 527.312187)">
                                <path d="M70.7772076,40.8683848 L0.449229844,0.725987883" id="Fill-128" fill="#F5A4AD"></path>
                                <path d="M70.7772076,40.8683848 L0.449229844,0.725987883" id="Stroke-129" stroke="#CF0A1D" stroke-width="10.775"></path>
                            </g>
                            <path d="M212.291841,649.853186 L212.291841,568.180729 L212.291841,649.853186 Z" id="Fill-131" fill="#F5A4AD"></path>
                            <path d="M212.291684,649.853108 L212.291684,568.18065" id="Stroke-132" stroke="#CF0A1D" stroke-width="10.775"></path>
                            <polygon id="Fill-133" fill="#F5A4AD" points="423.617925 609.248182 353.289947 649.852872 282.96197 609.248182 282.96197 528.038017 353.289947 487.433328 423.617925 528.038017"></polygon>
                            <polygon id="Stroke-134" stroke="#CF0A1D" stroke-width="10.775" points="423.617925 609.248182 353.289947 649.852872 282.96197 609.248182 282.96197 528.038017 353.289947 487.433328 423.617925 528.038017"></polygon>
                            <g id="Group-137" transform="translate(353.000000, 527.312187)">
                                <path d="M0.28986882,40.8683848 L70.6178465,0.725987883" id="Fill-135" fill="#F5A4AD"></path>
                                <path d="M0.28986882,40.8683848 L70.6178465,0.725987883" id="Stroke-136" stroke="#CF0A1D" stroke-width="10.775"></path>
                            </g>
                            <g id="Group-140" transform="translate(282.242762, 527.312187)">
                                <path d="M71.0471071,40.8683848 L0.719129399,0.725987883" id="Fill-138" fill="#F5A4AD"></path>
                                <path d="M71.0471071,40.8683848 L0.719129399,0.725987883" id="Stroke-139" stroke="#CF0A1D" stroke-width="10.775"></path>
                            </g>
                            <path d="M353.28979,649.853186 L353.28979,568.180729 L353.28979,649.853186 Z" id="Fill-141" fill="#F5A4AD"></path>
                            <path d="M353.289869,649.853108 L353.289869,568.18065" id="Stroke-142" stroke="#CF0A1D" stroke-width="10.775"></path>
                            <polygon id="Fill-143" fill="#F5A4AD" points="563.955394 609.248182 493.627417 649.852872 423.299439 609.248182 423.299439 528.038017 493.627417 487.433328 563.955394 528.038017"></polygon>
                            <polygon id="Stroke-144" stroke="#CF0A1D" stroke-width="10.775" points="563.955394 609.248182 493.627417 649.852872 423.299439 609.248182 423.299439 528.038017 493.627417 487.433328 563.955394 528.038017"></polygon>
                            <g id="Group-147" transform="translate(492.942094, 527.312187)">
                                <path d="M0.685244543,40.8683848 L71.0132223,0.725987883" id="Fill-145" fill="#F5A4AD"></path>
                                <path d="M0.685244543,40.8683848 L71.0132223,0.725987883" id="Stroke-146" stroke="#CF0A1D" stroke-width="10.775"></path>
                            </g>
                            <g id="Group-150" transform="translate(422.971047, 527.312187)">
                                <path d="M70.6562913,40.8683848 L0.328313586,0.725987883" id="Fill-148" fill="#F5A4AD"></path>
                                <path d="M70.6562913,40.8683848 L0.328313586,0.725987883" id="Stroke-149" stroke="#CF0A1D" stroke-width="10.775"></path>
                            </g>
                            <path d="M493.627574,649.853186 L493.627574,568.180729 L493.627574,649.853186 Z" id="Fill-151" fill="#F5A4AD"></path>
                            <path d="M493.627338,649.853108 L493.627338,568.18065" id="Stroke-152" stroke="#CF0A1D" stroke-width="10.775"></path>
                            <polygon id="Fill-153" fill="#F5A4AD" points="704.292864 609.248182 633.964886 649.852872 563.636908 609.248182 563.636908 528.038017 633.964886 487.433328 704.292864 528.038017"></polygon>
                            <polygon id="Stroke-154" stroke="#CF0A1D" stroke-width="10.775" points="704.292864 609.248182 633.964886 649.852872 563.636908 609.248182 563.636908 528.038017 633.964886 487.433328 704.292864 528.038017"></polygon>
                            <path d="M633.964807,568.180571 L704.292785,528.038175" id="Fill-156" fill="#F5A4AD"></path>
                            <path d="M633.964807,568.180571 L704.292785,528.038175" id="Stroke-157" stroke="#CF0A1D" stroke-width="10.775"></path>
                            <g id="Group-161" transform="translate(562.913140, 527.312187)">
                                <path d="M71.051667,40.8683848 L0.72368931,0.725987883" id="Fill-159" fill="#F5A4AD"></path>
                                <path d="M71.051667,40.8683848 L0.72368931,0.725987883" id="Stroke-160" stroke="#CF0A1D" stroke-width="10.775"></path>
                            </g>
                            <path d="M633.96465,649.853186 L633.96465,568.180729 L633.96465,649.853186 Z" id="Fill-162" fill="#F5A4AD"></path>
                            <path d="M633.964807,649.853108 L633.964807,568.18065" id="Stroke-163" stroke="#CF0A1D" stroke-width="10.775"></path>
                            <path d="M703.973984,609.248104 L703.973984,528.038725 L703.973984,609.248104 Z" id="Fill-164" fill="#F5A4AD"></path>
                            <path d="M703.97422,609.248182 L703.97422,528.038017" id="Stroke-165" stroke="#CF0A1D" stroke-width="10.775"></path>
                            <polygon id="Fill-178" fill="#F5A4AD" points="282.619662 446.828403 212.291684 487.433092 141.963706 446.828403 141.963706 365.618238 212.291684 325.013548 282.619662 365.618238"></polygon>
                            <polygon id="Stroke-179" stroke="#CF0A1D" stroke-width="10.775" points="282.619662 446.828403 212.291684 487.433092 141.963706 446.828403 141.963706 365.618238 212.291684 325.013548 282.619662 365.618238"></polygon>
                            <g id="Group-182" transform="translate(212.271715, 365.352577)">
                                <path d="M0.0198906459,40.4082151 L70.3478684,0.265818175" id="Fill-180" fill="#F5A4AD"></path>
                                <path d="M0.0198906459,40.4082151 L70.3478684,0.265818175" id="Stroke-181" stroke="#CF0A1D" stroke-width="10.775"></path>
                            </g>
                            <g id="Group-185" transform="translate(141.514477, 365.352577)">
                                <path d="M70.777129,40.4082151 L0.449151225,0.265818175" id="Fill-183" fill="#F5A4AD"></path>
                                <path d="M70.777129,40.4082151 L0.449151225,0.265818175" id="Stroke-184" stroke="#CF0A1D" stroke-width="10.775"></path>
                            </g>
                            <path d="M212.291841,487.433564 L212.291841,405.76032 L212.291841,487.433564 Z" id="Fill-186" fill="#F5A4AD"></path>
                            <path d="M212.291606,487.433328 L212.291606,405.76087" id="Stroke-187" stroke="#CF0A1D" stroke-width="10.775"></path>
                            <polygon id="Fill-188" fill="#F5A4AD" points="423.617925 446.828403 353.289947 487.433092 282.96197 446.828403 282.96197 365.618238 353.289947 325.013548 423.617925 365.618238"></polygon>
                            <polygon id="Stroke-189" stroke="#CF0A1D" stroke-width="10.775" points="423.617925 446.828403 353.289947 487.433092 282.96197 446.828403 282.96197 365.618238 353.289947 325.013548 423.617925 365.618238"></polygon>
                            <g id="Group-192" transform="translate(353.000000, 365.352577)">
                                <path d="M0.28986882,40.4082151 L70.6178465,0.265818175" id="Fill-190" fill="#F5A4AD"></path>
                                <path d="M0.28986882,40.4082151 L70.6178465,0.265818175" id="Stroke-191" stroke="#CF0A1D" stroke-width="10.775"></path>
                            </g>
                            <g id="Group-195" transform="translate(282.242762, 365.352577)">
                                <path d="M71.0471071,40.4082151 L0.719129399,0.265818175" id="Fill-193" fill="#F5A4AD"></path>
                                <path d="M71.0471071,40.4082151 L0.719129399,0.265818175" id="Stroke-194" stroke="#CF0A1D" stroke-width="10.775"></path>
                            </g>
                            <path d="M353.28979,487.433564 L353.28979,405.76032 L353.28979,487.433564 Z" id="Fill-196" fill="#F5A4AD"></path>
                            <path d="M353.289869,487.433328 L353.289869,405.76087" id="Stroke-197" stroke="#CF0A1D" stroke-width="10.775"></path>
                            <polygon id="Fill-198" fill="#F5A4AD" points="563.955316 446.828403 493.627338 487.433092 423.29936 446.828403 423.29936 365.618238 493.627338 325.013548 563.955316 365.618238"></polygon>
                            <polygon id="Stroke-199" stroke="#CF0A1D" stroke-width="10.775" points="563.955316 446.828403 493.627338 487.433092 423.29936 446.828403 423.29936 365.618238 493.627338 325.013548 563.955316 365.618238"></polygon>
                            <g id="Group-202" transform="translate(492.942094, 365.352577)">
                                <path d="M0.685244543,40.4082151 L71.0132223,0.265818175" id="Fill-200" fill="#F5A4AD"></path>
                                <path d="M0.685244543,40.4082151 L71.0132223,0.265818175" id="Stroke-201" stroke="#CF0A1D" stroke-width="10.775"></path>
                            </g>
                            <g id="Group-205" transform="translate(422.971047, 365.352577)">
                                <path d="M70.6562913,40.4082151 L0.328313586,0.265818175" id="Fill-203" fill="#F5A4AD"></path>
                                <path d="M70.6562913,40.4082151 L0.328313586,0.265818175" id="Stroke-204" stroke="#CF0A1D" stroke-width="10.775"></path>
                            </g>
                            <path d="M493.627574,487.433564 L493.627574,405.76032 L493.627574,487.433564 Z" id="Fill-206" fill="#F5A4AD"></path>
                            <path d="M493.627338,487.433328 L493.627338,405.76087" id="Stroke-207" stroke="#CF0A1D" stroke-width="10.775"></path>
                            <polygon id="Fill-208" fill="#F5A4AD" points="704.292864 446.828403 633.964886 487.433092 563.636908 446.828403 563.636908 365.618238 633.964886 325.013548 704.292864 365.618238"></polygon>
                            <polygon id="Stroke-209" stroke="#CF0A1D" stroke-width="10.775" points="704.292864 446.828403 633.964886 487.433092 563.636908 446.828403 563.636908 365.618238 633.964886 325.013548 704.292864 365.618238"></polygon>
                            <path d="M633.964807,405.760792 L704.292785,365.618395" id="Fill-211" fill="#F5A4AD"></path>
                            <path d="M633.964807,405.760792 L704.292785,365.618395" id="Stroke-212" stroke="#CF0A1D" stroke-width="10.775"></path>
                            <g id="Group-216" transform="translate(562.913140, 365.352577)">
                                <path d="M71.051667,40.4082151 L0.72368931,0.265818175" id="Fill-214" fill="#F5A4AD"></path>
                                <path d="M71.051667,40.4082151 L0.72368931,0.265818175" id="Stroke-215" stroke="#CF0A1D" stroke-width="10.775"></path>
                            </g>
                            <path d="M633.96465,487.433564 L633.96465,405.76032 L633.96465,487.433564 Z" id="Fill-217" fill="#F5A4AD"></path>
                            <path d="M633.964807,487.433328 L633.964807,405.76087" id="Stroke-218" stroke="#CF0A1D" stroke-width="10.775"></path>
                            <path d="M703.973984,446.828481 L703.973984,365.618316 L703.973984,446.828481 Z" id="Fill-219" fill="#F5A4AD"></path>
                            <path d="M703.97422,446.828403 L703.97422,365.618238" id="Stroke-220" stroke="#CF0A1D" stroke-width="10.775"></path>
                            <polygon id="Fill-233" fill="#F5A4AD" points="282.289226 284.408701 211.961248 325.013391 141.63327 284.408701 141.63327 203.198536 211.961248 162.593847 282.289226 203.198536"></polygon>
                            <polygon id="Stroke-234" stroke="#CF0A1D" stroke-width="10.775" points="282.289226 284.408701 211.961248 325.013391 141.63327 284.408701 141.63327 203.198536 211.961248 162.593847 282.289226 203.198536"></polygon>
                            <g id="Group-237" transform="translate(211.485523, 202.606755)">
                                <path d="M0.475724499,40.7342571 L70.8037022,0.591860167" id="Fill-235" fill="#F5A4AD"></path>
                                <path d="M0.475724499,40.7342571 L70.8037022,0.591860167" id="Stroke-236" stroke="#CF0A1D" stroke-width="10.775"></path>
                            </g>
                            <g id="Group-240" transform="translate(141.514477, 202.606755)">
                                <path d="M70.4467713,40.7342571 L0.118793541,0.591860167" id="Fill-238" fill="#F5A4AD"></path>
                                <path d="M70.4467713,40.7342571 L0.118793541,0.591860167" id="Stroke-239" stroke="#CF0A1D" stroke-width="10.775"></path>
                            </g>
                            <path d="M211.961405,325.013234 L211.961405,243.340776 L211.961405,325.013234 Z" id="Fill-241" fill="#F5A4AD"></path>
                            <path d="M211.961248,325.013548 L211.961248,243.341091" id="Stroke-242" stroke="#CF0A1D" stroke-width="10.775"></path>
                            <polygon id="Fill-243" fill="#F5A4AD" points="423.287489 284.408701 352.959511 325.013391 282.631533 284.408701 282.631533 203.198536 352.959511 162.593847 423.287489 203.198536"></polygon>
                            <polygon id="Stroke-244" stroke="#CF0A1D" stroke-width="10.775" points="423.287489 284.408701 352.959511 325.013391 282.631533 284.408701 282.631533 203.198536 352.959511 162.593847 423.287489 203.198536"></polygon>
                            <g id="Group-247" transform="translate(352.213808, 202.606755)">
                                <path d="M0.745624053,40.7342571 L71.0736018,0.591860167" id="Fill-245" fill="#F5A4AD"></path>
                                <path d="M0.745624053,40.7342571 L71.0736018,0.591860167" id="Stroke-246" stroke="#CF0A1D" stroke-width="10.775"></path>
                            </g>
                            <g id="Group-250" transform="translate(282.242762, 202.606755)">
                                <path d="M70.7166708,40.7342571 L0.388693096,0.591860167" id="Fill-248" fill="#F5A4AD"></path>
                                <path d="M70.7166708,40.7342571 L0.388693096,0.591860167" id="Stroke-249" stroke="#CF0A1D" stroke-width="10.775"></path>
                            </g>
                            <path d="M352.959354,325.013234 L352.959354,243.340776 L352.959354,325.013234 Z" id="Fill-251" fill="#F5A4AD"></path>
                            <path d="M352.959433,325.013548 L352.959433,243.341091" id="Stroke-252" stroke="#CF0A1D" stroke-width="10.775"></path>
                            <polygon id="Fill-253" fill="#F5A4AD" points="563.624958 284.408701 493.29698 325.013391 422.969003 284.408701 422.969003 203.198536 493.29698 162.593847 563.624958 203.198536"></polygon>
                            <polygon id="Stroke-254" stroke="#CF0A1D" stroke-width="10.775" points="563.624958 284.408701 493.29698 325.013391 422.969003 284.408701 422.969003 203.198536 493.29698 162.593847 563.624958 203.198536"></polygon>
                            <g id="Group-257" transform="translate(492.942094, 202.606755)">
                                <path d="M0.354808241,40.7342571 L70.682786,0.591860167" id="Fill-255" fill="#F5A4AD"></path>
                                <path d="M0.354808241,40.7342571 L70.682786,0.591860167" id="Stroke-256" stroke="#CF0A1D" stroke-width="10.775"></path>
                            </g>
                            <g id="Group-260" transform="translate(422.184855, 202.606755)">
                                <path d="M71.1120465,40.7342571 L0.78406882,0.591860167" id="Fill-258" fill="#F5A4AD"></path>
                                <path d="M71.1120465,40.7342571 L0.78406882,0.591860167" id="Stroke-259" stroke="#CF0A1D" stroke-width="10.775"></path>
                            </g>
                            <path d="M493.297138,325.013234 L493.297138,243.340776 L493.297138,325.013234 Z" id="Fill-261" fill="#F5A4AD"></path>
                            <path d="M493.296902,325.013548 L493.296902,243.341091" id="Stroke-262" stroke="#CF0A1D" stroke-width="10.775"></path>
                            <polygon id="Fill-263" fill="#F5A4AD" points="703.962427 284.408701 633.63445 325.013391 563.306472 284.408701 563.306472 203.198536 633.63445 162.593847 703.962427 203.198536"></polygon>
                            <polygon id="Stroke-264" stroke="#CF0A1D" stroke-width="10.775" points="703.962427 284.408701 633.63445 325.013391 563.306472 284.408701 563.306472 203.198536 633.63445 162.593847 703.962427 203.198536"></polygon>
                            <path d="M633.634371,243.341012 L703.962349,203.198615" id="Fill-266" fill="#F5A4AD"></path>
                            <path d="M633.634371,243.341012 L703.962349,203.198615" id="Stroke-267" stroke="#CF0A1D" stroke-width="10.775"></path>
                            <g id="Group-271" transform="translate(562.913140, 202.606755)">
                                <path d="M70.7212307,40.7342571 L0.393253007,0.591860167" id="Fill-269" fill="#F5A4AD"></path>
                                <path d="M70.7212307,40.7342571 L0.393253007,0.591860167" id="Stroke-270" stroke="#CF0A1D" stroke-width="10.775"></path>
                            </g>
                            <path d="M633.634214,325.013234 L633.634214,243.340776 L633.634214,325.013234 Z" id="Fill-272" fill="#F5A4AD"></path>
                            <path d="M633.634371,325.013548 L633.634371,243.341091" id="Stroke-273" stroke="#CF0A1D" stroke-width="10.775"></path>
                            <path d="M703.643548,284.408859 L703.643548,203.198694 L703.643548,284.408859 Z" id="Fill-274" fill="#F5A4AD"></path>
                            <path d="M703.643863,284.408701 L703.643863,203.198536" id="Stroke-275" stroke="#CF0A1D" stroke-width="10.775"></path>
                            <polygon id="Fill-288" fill="#F5A4AD" points="282.95002 121.988843 212.622042 162.593533 142.294064 121.988843 142.294064 40.7786781 212.622042 0.173988649 282.95002 40.7786781"></polygon>
                            <polygon id="Stroke-289" stroke="#CF0A1D" stroke-width="10.775" points="282.95002 121.988843 212.622042 162.593533 142.294064 121.988843 142.294064 40.7786781 212.622042 0.173988649 282.95002 40.7786781"></polygon>
                            <g id="Group-293" transform="translate(212.271715, 40.647145)">
                                <path d="M0.350326949,40.2740874 L70.6783047,0.13169046" id="Fill-291" fill="#F5A4AD"></path>
                                <path d="M0.350326949,40.2740874 L70.6783047,0.13169046" id="Stroke-292" stroke="#CF0A1D" stroke-width="10.775"></path>
                            </g>
                            <g id="Group-296" transform="translate(141.514477, 40.647145)">
                                <path d="M71.1075653,40.2740874 L0.779587528,0.13169046" id="Fill-294" fill="#F5A4AD"></path>
                                <path d="M71.1075653,40.2740874 L0.779587528,0.13169046" id="Stroke-295" stroke="#CF0A1D" stroke-width="10.775"></path>
                            </g>
                            <path d="M212.622278,162.593611 L212.622278,80.9211536 L212.622278,162.593611 Z" id="Fill-297" fill="#F5A4AD"></path>
                            <path d="M212.622042,162.593768 L212.622042,80.9213109" id="Stroke-298" stroke="#CF0A1D" stroke-width="10.775"></path>
                            <polygon id="Fill-299" fill="#F5A4AD" points="423.948283 121.988843 353.620305 162.593533 283.292327 121.988843 283.292327 40.7786781 353.620305 0.173988649 423.948283 40.7786781"></polygon>
                            <polygon id="Stroke-300" stroke="#CF0A1D" stroke-width="10.775" points="423.948283 121.988843 353.620305 162.593533 283.292327 121.988843 283.292327 40.7786781 353.620305 0.173988649 423.948283 40.7786781"></polygon>
                            <g id="Group-304" transform="translate(353.000000, 40.647145)">
                                <path d="M0.620226503,40.2740874 L70.9482042,0.13169046" id="Fill-302" fill="#F5A4AD"></path>
                                <path d="M0.620226503,40.2740874 L70.9482042,0.13169046" id="Stroke-303" stroke="#CF0A1D" stroke-width="10.775"></path>
                            </g>
                            <g id="Group-307" transform="translate(283.028953, 40.647145)">
                                <path d="M70.5912733,40.2740874 L0.263295546,0.13169046" id="Fill-305" fill="#F5A4AD"></path>
                                <path d="M70.5912733,40.2740874 L0.263295546,0.13169046" id="Stroke-306" stroke="#CF0A1D" stroke-width="10.775"></path>
                            </g>
                            <path d="M353.620227,162.593611 L353.620227,80.9211536 L353.620227,162.593611 Z" id="Fill-308" fill="#F5A4AD"></path>
                            <path d="M353.620227,162.593768 L353.620227,80.9213109" id="Stroke-309" stroke="#CF0A1D" stroke-width="10.775"></path>
                            <polygon id="Fill-310" fill="#F5A4AD" points="564.285673 121.988843 493.957696 162.593533 423.629718 121.988843 423.629718 40.7786781 493.957696 0.173988649 564.285673 40.7786781"></polygon>
                            <polygon id="Stroke-311" stroke="#CF0A1D" stroke-width="10.775" points="564.285673 121.988843 493.957696 162.593533 423.629718 121.988843 423.629718 40.7786781 493.957696 0.173988649 564.285673 40.7786781"></polygon>
                            <g id="Group-315" transform="translate(493.728285, 40.647145)">
                                <path d="M0.22941069,40.2740874 L70.5573884,0.13169046" id="Fill-313" fill="#F5A4AD"></path>
                                <path d="M0.22941069,40.2740874 L70.5573884,0.13169046" id="Stroke-314" stroke="#CF0A1D" stroke-width="10.775"></path>
                            </g>
                            <g id="Group-318" transform="translate(422.971047, 40.647145)">
                                <path d="M70.986649,40.2740874 L0.658671269,0.13169046" id="Fill-316" fill="#F5A4AD"></path>
                                <path d="M70.986649,40.2740874 L0.658671269,0.13169046" id="Stroke-317" stroke="#CF0A1D" stroke-width="10.775"></path>
                            </g>
                            <path d="M493.95801,162.593611 L493.95801,80.9211536 L493.95801,162.593611 Z" id="Fill-319" fill="#F5A4AD"></path>
                            <path d="M493.957696,162.593768 L493.957696,80.9213109" id="Stroke-320" stroke="#CF0A1D" stroke-width="10.775"></path>
                            <polygon id="Fill-321" fill="#F5A4AD" points="704.623221 121.988843 634.295244 162.593533 563.967266 121.988843 563.967266 40.7786781 634.295244 0.173988649 704.623221 40.7786781"></polygon>
                            <polygon id="Stroke-322" stroke="#CF0A1D" stroke-width="10.775" points="704.623221 121.988843 634.295244 162.593533 563.967266 121.988843 563.967266 40.7786781 634.295244 0.173988649 704.623221 40.7786781"></polygon>
                            <path d="M634.295165,80.9212322 L704.623143,40.7788353" id="Fill-324" fill="#F5A4AD"></path>
                            <path d="M634.295165,80.9212322 L704.623143,40.7788353" id="Stroke-325" stroke="#CF0A1D" stroke-width="10.775"></path>
                            <g id="Group-329" transform="translate(563.699332, 40.647145)">
                                <path d="M70.5958332,40.2740874 L0.267855457,0.13169046" id="Fill-327" fill="#F5A4AD"></path>
                                <path d="M70.5958332,40.2740874 L0.267855457,0.13169046" id="Stroke-328" stroke="#CF0A1D" stroke-width="10.775"></path>
                            </g>
                            <path d="M634.295086,162.593611 L634.295086,80.9211536 L634.295086,162.593611 Z" id="Fill-330" fill="#F5A4AD"></path>
                            <path d="M634.295165,162.593768 L634.295165,80.9213109" id="Stroke-331" stroke="#CF0A1D" stroke-width="10.775"></path>
                            <path d="M704.304421,121.989236 L704.304421,40.7790712 L704.304421,121.989236 Z" id="Fill-332" fill="#F5A4AD"></path>
                            <path d="M704.304578,121.988843 L704.304578,40.7786781" id="Stroke-333" stroke="#CF0A1D" stroke-width="10.775"></path>
                            <polygon id="Fill-346" fill="#F5A4AD" points="211.630812 812.272966 281.958789 852.877655 281.958789 934.08782 211.630812 974.69251 141.302834 934.08782 141.302834 852.877655"></polygon>
                            <polyline id="Stroke-347" stroke="#CF0A1D" stroke-width="10.775" points="211.630812 812.272966 281.958789 852.877655 281.958789 934.08782 211.630812 974.69251 141.302834 934.08782 141.302834 852.877655 211.630812 812.272966"></polyline>
                            <polygon id="Fill-356" fill="#F5A4AD" points="352.629075 812.272966 422.957053 852.877655 422.957053 934.08782 352.629075 974.69251 282.301097 934.08782 282.301097 852.877655"></polygon>
                            <polyline id="Stroke-357" stroke="#CF0A1D" stroke-width="10.775" points="352.629075 812.272966 422.957053 852.877655 422.957053 934.08782 352.629075 974.69251 282.301097 934.08782 282.301097 852.877655 352.629075 812.272966"></polyline>
                            <polygon id="Fill-366" fill="#F5A4AD" points="492.966544 812.272966 563.294522 852.877655 563.294522 934.08782 492.966544 974.69251 422.638566 934.08782 422.638566 852.877655"></polygon>
                            <polyline id="Stroke-367" stroke="#CF0A1D" stroke-width="10.775" points="492.966544 812.272966 563.294522 852.877655 563.294522 934.08782 492.966544 974.69251 422.638566 934.08782 422.638566 852.877655 492.966544 812.272966"></polyline>
                            <polygon id="Fill-376" fill="#F5A4AD" points="633.304013 812.272966 703.631991 852.877655 703.631991 934.08782 633.304013 974.69251 562.976036 934.08782 562.976036 852.877655"></polygon>
                            <polyline id="Stroke-377" stroke="#CF0A1D" stroke-width="10.775" points="633.304013 812.272966 703.631991 852.877655 703.631991 934.08782 633.304013 974.69251 562.976036 934.08782 562.976036 852.877655 633.304013 812.272966"></polyline>
                        </g>
                    </g>
                </g>
            </g>
            <path d="M1082.1489,385.354596 C1082.1489,471.260628 1013.20966,540.901627 928.168181,540.901627 C843.126704,540.901627 774.187459,471.260628 774.187459,385.354596 C774.187459,299.448563 843.126704,229.807565 928.168181,229.807565 C1013.20966,229.807565 1082.1489,299.448563 1082.1489,385.354596 Z" id="Stroke-7" stroke="#009BD0" stroke-width="12"></path>
            <path d="M1491.47733,117.407811 C1491.47733,203.313844 1422.53808,272.954842 1337.49661,272.954842 C1252.45513,272.954842 1183.51588,203.313844 1183.51588,117.407811 C1183.51588,31.5017782 1252.45513,-38.13922 1337.49661,-38.13922 C1422.53808,-38.13922 1491.47733,31.5017782 1491.47733,117.407811 Z" id="Stroke-9" stroke="#009BD0" stroke-width="12"></path>
            <path d="M821.731948,272.954842 L1231.06029,5.00779809" id="Stroke-21" stroke="#009BD0" stroke-width="12"></path>
            <path d="M1453.91659,219.21559 L1020.81899,509.598564" id="Stroke-31" stroke="#009BD0" stroke-width="12"></path>
        </g>
    </g>
</svg>