<?xml version="1.0" encoding="UTF-8"?>
<svg width="1440px" height="1024px" viewBox="0 0 1440 1024" version="1.1" xmlns="http://www.w3.org/2000/svg" xmlns:xlink="http://www.w3.org/1999/xlink">
    <!-- Generator: Sketch 45.1 (43504) - http://www.bohemiancoding.com/sketch -->
    <title>About</title>
    <desc>Created with Sketch.</desc>
    <defs>
        <path d="M171.872574,370.241945 C171.661955,410.205552 186.204745,448.859954 212.872424,478.625411 C315.139527,592.773928 530.084187,766.900712 685.321014,573.58742 C863.925548,351.174226 270.366234,-76.7925673 213.077988,111.921658 C179.476746,222.607605 172.169967,313.774268 171.872574,370.241945" id="path-1"></path>
        <filter x="-1.6%" y="-1.3%" width="104.9%" height="105.0%" filterUnits="objectBoundingBox" id="filter-2">
            <feOffset dx="5" dy="9" in="SourceAlpha" result="shadowOffsetOuter1"></feOffset>
            <feGaussianBlur stdDeviation="3" in="shadowOffsetOuter1" result="shadowBlurOuter1"></feGaussianBlur>
            <feColorMatrix values="0 0 0 0 0.261665604   0 0 0 0 0.258408206   0 0 0 0 0.258408206  0 0 0 0.562018795 0" type="matrix" in="shadowBlurOuter1"></feColorMatrix>
        </filter>
    </defs>
    <g id="Page-1" stroke="none" stroke-width="1" fill="none" fill-rule="evenodd">
        <g id="About">
            <path d="M939.052683,593.338796 C1144.75222,559.10192 1326.78618,603.408022 1335.88813,637.644897 C1344.99008,671.881773 1330.4273,673.895115 1363.19314,752.438092 C1395.95982,830.980231 1011.8666,839.036115 959.076302,863.202927 C906.286838,887.369738 702.407861,1155.39068 706.048138,879.399351 C709.689253,603.408022 939.052683,593.338796 939.052683,593.338796" id="Fill-3" stroke="#439B2C" stroke-width="12"></path>
            <path d="M-72.1157288,600.135867 C-76.8569333,601.333598 -80.9757438,604.248462 -82.691101,608.828075 C-164.423608,827.051338 265.841595,1036.20949 293.418714,988.010795 C322.895866,936.491481 480.109416,601.857439 418.11861,566.974958 C354.611329,531.239239 -14.0501785,585.463881 -72.1157288,600.135867" id="Fill-5" stroke="#D00A1D" stroke-width="12"></path>
            <g id="Fill-1">
                <use fill="black" fill-opacity="1" filter="url(#filter-2)" xlink:href="#path-1"></use>
                <use fill="#FFE800" fill-rule="evenodd" xlink:href="#path-1"></use>
            </g>
            <g id="Group" transform="translate(774.000000, -39.000000)" stroke="#009BD0" stroke-width="12">
                <path d="M308.148904,424.354596 C308.148904,510.260628 239.209659,579.901627 154.168181,579.901627 C69.1267043,579.901627 0.187458554,510.260628 0.187458554,424.354596 C0.187458554,338.448563 69.1267043,268.807565 154.168181,268.807565 C239.209659,268.807565 308.148904,338.448563 308.148904,424.354596 Z" id="Stroke-7"></path>
                <path d="M717.477331,156.407811 C717.477331,242.313844 648.538085,311.954842 563.496608,311.954842 C478.455131,311.954842 409.515885,242.313844 409.515885,156.407811 C409.515885,70.5017782 478.455131,0.860779987 563.496608,0.860779987 C648.538085,0.860779987 717.477331,70.5017782 717.477331,156.407811 Z" id="Stroke-9"></path>
                <path d="M47.731948,311.954842 L457.060288,44.0077981" id="Stroke-21"></path>
                <path d="M679.916588,258.21559 L246.818988,548.598564" id="Stroke-31"></path>
            </g>
        </g>
    </g>
</svg>