<svg xmlns="http://www.w3.org/2000/svg" width="373" height="329" viewBox="0 0 373 329">
  <g fill="none" fill-rule="evenodd" stroke="#009BD0" stroke-width="12" transform="translate(6 -237)">
    <path d="M297.551483 409.627284C297.551483 492.578958 230.983099 559.824962 148.866248 559.824962 66.7493966 559.824962.181011745 492.578958.181011745 409.627284.181011745 326.67561 66.7493966 259.429606 148.866248 259.429606 230.983099 259.429606 297.551483 326.67561 297.551483 409.627284zM.180928214 409.627284L395.432227 150.895096M148.866248 259.429606L544.117546.697417883M14.95857 474.979211L411.352573 218.57008M441.341801 259.429606L49.3699302 521.233337M103.959464 551.904788L493.674326 292.279758M46.0904183 301.093024L441.341717 42.3608351M611.330373 16.8901461L213.155488 270.213549M667.178135 66.5809616L271.707985 324.26427M692.802866 150.895346L297.551567 409.627534M148.866248 559.824962L544.117546 301.092773M656.533859 249.201895L238.330739 529.59843"/>
  </g>
</svg>
