<svg xmlns="http://www.w3.org/2000/svg" width="768" height="1024" viewBox="0 0 768 1024">
  <g fill="none" fill-rule="evenodd">
    <path fill="#FFE800" d="M-128.094007,314.837026 C-128.297382,353.426261 -114.254727,390.751316 -88.5041653,419.493121 C10.2459122,529.716003 217.798499,697.854465 367.696641,511.189331 C540.158861,296.425057 -32.9876005,-116.823708 -88.305671,65.4005241 C-120.751346,172.279917 -127.806841,260.311305 -128.094007,314.837026"/>
    <path fill="#439B2C" d="M572.037865,528.914458 C770.663273,495.855008 946.436981,538.637397 955.22591,571.696846 C964.014838,604.756296 949.952876,606.700398 981.591885,682.542236 C1013.2317,758.383265 642.347672,766.162102 591.37286,789.497803 C540.398857,812.833504 343.531397,1071.63705 347.046482,805.137223 C350.562377,538.637397 572.037865,528.914458 572.037865,528.914458"/>
    <path fill="#CF0A1D" d="M-204.833951,529.583618 C-209.412103,530.740158 -213.389265,533.554779 -215.04563,537.976896 C-293.967308,748.695334 121.500823,950.660414 148.129549,904.1193 C176.592964,854.371765 328.399848,531.245984 268.540942,497.563133 C207.217713,463.056385 -148.765309,515.41621 -204.833951,529.583618"/>
    <g stroke="#009BD0" stroke-width="12" transform="translate(401 -237)">
      <path d="M297.551483 409.627284C297.551483 492.578958 230.983099 559.824962 148.866248 559.824962 66.7493966 559.824962.181011745 492.578958.181011745 409.627284.181011745 326.67561 66.7493966 259.429606 148.866248 259.429606 230.983099 259.429606 297.551483 326.67561 297.551483 409.627284zM.180928214 409.627284L395.432227 150.895096M148.866248 259.429606L544.117546.697417883M14.95857 474.979211L411.352573 218.57008M441.341801 259.429606L49.3699302 521.233337M103.959464 551.904788L493.674326 292.279758M46.0904183 301.093024L441.341717 42.3608351M611.330373 16.8901461L213.155488 270.213549M667.178135 66.5809616L271.707985 324.26427M692.802866 150.895346L297.551567 409.627534M148.866248 559.824962L544.117546 301.092773M656.533859 249.201895L238.330739 529.59843"/>
    </g>
  </g>
</svg>
